<svg xmlns="http://www.w3.org/2000/svg" width="24" height="24" viewBox="0 0 24 24" fill="currentColor">
  <path d="M16.993 13.611c3.912.58 7.007 2.77 2.74 7.078-5.683 4.963-6.78-1.113-7.733-4.308-.953 3.195-2.81 9.498-7.823 4.308-4.557-5.073-1.082-6.498 2.83-7.078-2.67.296-5.568-.628-6.383-3.364C.378 9.418 0 4.458 0 3.768c0-.688.139-1.86.902-2.203.659-.299 1.664-.621 4.3 1.24C7.954 4.747 10.913 8.686 12 10.8c1.087-2.113 4.046-6.052 6.798-7.997 2.636-1.86 3.641-1.538 4.3-1.24.763.345.902 1.516.902 2.206 0 .688-.378 5.65-.624 6.478-.815 2.736-3.713 3.661-6.383 3.364ZM6.746 11.628l.032-.004c.133-.019.267-.038.403-.054a2 2 0 0 1 .556 3.96c-.155.025-.31.045-.485.066-.961.144-1.891.335-2.62.664-.266.12-.556.166-.614.4-.042.167.051.352.157.592.262.592.746 1.27 1.474 2.082.45.463.862.811 1.249 1.049.296.183.536.309.765.282.214-.025.358-.203.511-.379.236-.271.438-.602.622-.956.592-1.139.984-2.505 1.287-3.521a2.001 2.001 0 0 1 3.834 0c.31 1.042.626 2.416 1.147 3.559.15.331.316.639.519.891.114.141.221.285.396.307.625.076 1.33-.419 2.386-1.339.509-.52.888-.994 1.14-1.436.196-.343.332-.617.278-.87-.061-.282-.349-.429-.646-.596-.65-.365-1.494-.593-2.365-.726l-.017-.002a11.624 11.624 0 0 1-.492-.067 2 2 0 0 1 .556-3.96c.151.018.301.039.442.059 1.717.18 3.675-.198 4.198-1.952.224-.756.541-5.281.541-5.908 0-.101-.026-.286-.05-.439-.354.03-.887.322-1.998 1.106-2.502 1.769-5.185 5.358-6.174 7.279a2 2 0 0 1-3.557 0c-.988-1.922-3.67-5.51-6.172-7.276-.642-.453-1.161-.754-1.593-.937a2.171 2.171 0 0 0-.412-.137c-.022.145-.044.31-.044.403 0 .629.317 5.152.541 5.909.525 1.76 2.493 2.133 4.205 1.951Z" />
</svg>
